<?xml version="1.0" encoding="utf-8"?>
<!-- Generator: Adobe Illustrator 26.2.1, SVG Export Plug-In . SVG Version: 6.00 Build 0)  -->
<svg version="1.1" id="Capa_1" xmlns="http://www.w3.org/2000/svg" xmlns:xlink="http://www.w3.org/1999/xlink" x="0px" y="0px"
	 viewBox="0 0 2303.4 358.3" style="enable-background:new 0 0 2303.4 358.3;" xml:space="preserve">
<style type="text/css">
	.st0{fill:#FFFFFF;}
</style>
<g>
	<path class="st0" d="M194,69.1l0.8-0.8c-0.4-16.7,6.1-24.5,24.5-24.5c15.5,0,26.1,6.9,26.1,23.3c0,12.7-2.5,21.6-2.5,32.7
		c0,8.2,2.5,14.7,2.5,25.7c0,13.9-7.4,27-29,27c-21.2,0-27.8-13.9-31-29.4c-3.3-16.3-17.2-27.4-47-27.4c-14.7,0-31,7.8-31,25.3
		c0,12.7,5.7,21.6,44.5,28.6c49.8,9,100.9,28.6,100.9,88.2S207.1,335,149.5,335c-27.4,0-51.1-9.4-71.9-27
		c0,15.1-10.2,23.3-24.9,23.3c-16.7,0-26.1-9-26.1-26.1c0-13.1,1.6-26.1,1.6-39.6c0-9.8-1.6-19.2-1.6-29c0-18,17.6-24.9,33.1-24.9
		c19.2,0,28.6,12.7,31.9,33.5c2,12.3,11,31.9,47.4,31.9c19.6,0,39.6-8.2,39.6-30.6c0-10.6-4.1-18.4-13.9-22.9
		c-11.8-5.3-27.4-9-40-12.3c-22.9-5.7-41.7-8.6-61.3-23.3c-20.8-15.5-30.2-35.5-30.2-61.7c0-54.3,41.3-86.6,93.5-86.6
		C151.9,39.7,178.9,47.9,194,69.1z"/>
	<path class="st0" d="M357.8,234.1c-10.6,0-11.8,1.6-11.8,8.6c0,23.3,18.4,40.8,42.1,40.8c14.3,0,21.6-3.7,33.1-15.9
		c13.1-13.9,17.6-16.3,31-16.3c15.9,0,28.2,9.4,28.2,25.7c0,31-40,58-93.1,58c-67,0-108.6-44.9-108.6-111.1
		c0-64.5,40-113.5,107-113.5c62.9,0,98.4,37.6,98.4,98c0,18.8-2.5,25.7-27,25.7L357.8,234.1L357.8,234.1z M406.4,188.8
		c9.4,0,10.2-2.5,10.2-6.9c0-11-10.2-25.3-30.6-25.3c-20.8,0-38,15.9-38,26.5c0,5.3,5.3,5.7,17.2,5.7H406.4z"/>
	<path class="st0" d="M587.3,164.7h0.8c6.5-33.5,31.4-52.3,65.8-52.3c28.6,0,53.9,21.6,53.9,51.1c0,20.8-13.1,40-35.1,40
		c-15.5,0-28.6-10.2-28.6-26.5c0-5.7,2.5-11,4.9-15.9c-45.7-3.3-47,58.8-47,91.5c0,24.1,2.5,28.6,7.4,28.6c2,0,4.1-0.8,6.1-1.6
		c2.5-0.8,4.9-1.2,7.4-1.2c13.5,0,18,11,18,23.3c0,15.5-6.9,28.2-20.4,28.2c-22.1,0-38.4-4.1-55.1-4.1c-15.5,0-31,4.1-45.7,4.1
		c-13.5,0-20.4-12.7-20.4-28.2c0-12.3,4.5-23.3,18-23.3c2.9,0,4.9,0.8,7.4,1.2c2,0.4,4.1,1.6,6.1,1.6c4.9,0,7.4-4.1,7.4-28.6v-58.8
		c0-25.3-2-28.6-7.4-28.6c-4.1,0-8.2,2.9-13.5,2.9c-13.5,0-18-11-18-23.3c0-15.5,6.9-28.2,20.4-28.2c11.8,0,20,4.1,28.2,4.1
		c9,0,17.6-4.1,27-4.1c9,0,12.7,2.9,12.7,17.6v30.5H587.3z"/>
	<path class="st0" d="M900.1,292.5c-3.3,9-8.2,22.5-15.5,29.4c-6.9,6.5-11.4,7.8-19.6,7.8c-9.4,0-15.5-4.1-23.7-4.1
		s-15.9,4.1-23.7,4.1c-14.3,0-18.8-2.5-28.6-29.4l-38-105c-7.4-20-10.2-27.8-17.2-27.8c-3.7,0-7.4,0.8-11,0.8c-13.5,0-18-11-18-23.3
		c0-15.9,6.9-28.6,20.8-28.6c13.1,0,25.3,4.1,40.8,4.1c16.7,0,33.1-4.1,50.6-4.1c15.1,0,21.6,9.4,21.6,24.5
		c0,10.6-4.1,22.1-16.3,23.3c-5.7,0.8-10.2,0.4-10.2,7.8c0,4.9,4.1,16.3,5.3,21.2l27,88.6h0.8l29-88.6c1.6-4.1,6.5-17.6,6.5-21.2
		c0-13.5-27,0.4-27-30.6c0-14.3,6.9-24.9,22.1-24.9c11.8,0,25.3,4.1,38.8,4.1c14.3,0,28.2-4.1,43.3-4.1c17.2,0,24.1,12.7,24.1,28.6
		c0,12.3-4.5,23.3-18,23.3c-3.3,0-6.5-1.2-9.4-1.2c-5.3,0-8.6,4.5-14.7,20.4L900.1,292.5z"/>
	<path class="st0" d="M1027.9,193.7c0-21.2-1.2-28.6-7.4-28.6c-4.1,0-8.2,2.9-13.5,2.9c-13.5,0-18-11-18-23.3
		c0-15.5,6.9-28.2,24.5-28.2c11.4,0,22.5,4.1,33.5,4.1c12.3,0,24.1-4.1,35.9-4.1c9.4,0,12.3,6.1,12.3,20.8v115.2
		c0,25.3,3.7,28.6,6.9,28.6c2,0,4.1-0.8,6.1-1.6c2.5-0.8,4.9-1.2,7.4-1.2c13.5,0,18,11,18,23.3c0,15.5-6.9,28.2-24.1,28.2
		c-17.6,0-33.9-4.1-50.6-4.1c-15.5,0-31,4.1-45.7,4.1c-17.2,0-24.1-12.7-24.1-28.2c0-12.3,4.5-23.3,18-23.3c2.9,0,4.9,0.8,7.4,1.2
		c2,0.4,4.1,1.6,6.1,1.6c5.7,0,7.4-8.2,7.4-28.6v-58.8H1027.9z M1097.4,61.8c0,21.2-17.2,38.4-38.4,38.4s-38.4-17.2-38.4-38.4
		s17.2-38.4,38.4-38.4S1097.4,40.5,1097.4,61.8z"/>
	<path class="st0" d="M1359.2,220.2c0,67.8-34.3,114.8-105.8,114.8c-71.1,0-109-42.5-109-112.3c0-69.4,38-112.3,108.6-112.3
		C1320,110.4,1359.2,154.5,1359.2,220.2z M1211.7,222.7c0,47.4,21.2,60.9,38,60.9c14.3,0,26.5-4.1,33.1-17.6c6.1-12.7,9-29.4,9-43.3
		c0-47.4-18-60.9-40-60.9C1232.6,161.8,1211.7,176.9,1211.7,222.7z"/>
	<path class="st0" d="M1403.3,123.4c0-20.4-0.8-29-7.4-29c-4.1,0-8.2,2.9-13.5,2.9c-13.5,0-18-11-18-23.3c0-15.9,6.9-28.6,24.1-28.6
		c10.6,0,21.6,4.1,32.7,4.1c12.3,0,24.1-4.1,35.9-4.1c9.8,0,13.5,6.1,13.5,22.1v70.2h0.8c12.7-18,32.7-27.4,56.4-27.4
		c58.8,0,79.6,59.6,79.6,109.5c0,56-26.1,115.2-89.9,115.2c-27,0-51.5-9.8-65.8-37.6l-0.8,0.8l1.2,10.2c0,13.1-11,19.2-22.9,19.2
		c-21.6,0-26.1-10.2-26.1-29.8V123.4H1403.3z M1540.1,223.5c0-13.9-1.2-29-8.2-40.8c-5.3-9-14.3-17.2-24.9-17.2
		c-15.5,0-36.3,15.1-36.3,58.8c0,39.2,15.5,55.5,35.9,55.5C1526.2,279.8,1540.1,262.3,1540.1,223.5z"/>
	<path class="st0" d="M1706.3,164.7h0.8c6.5-33.5,31.4-52.3,65.8-52.3c28.6,0,53.9,21.6,53.9,51.1c0,20.8-13.1,40-35.1,40
		c-15.5,0-28.6-10.2-28.6-26.5c0-5.7,2.5-11,4.9-15.9c-45.7-3.3-47,58.8-47,91.5c0,24.1,2.5,28.6,7.4,28.6c2,0,4.1-0.8,6.1-1.6
		c2.5-0.8,4.9-1.2,7.4-1.2c13.5,0,18,11,18,23.3c0,15.5-6.9,28.2-20.4,28.2c-22.1,0-38.4-4.1-55.1-4.1c-15.5,0-31,4.1-45.7,4.1
		c-13.5,0-20.4-12.7-20.4-28.2c0-12.3,4.5-23.3,18-23.3c2.9,0,4.9,0.8,7.4,1.2c2,0.4,4.1,1.6,6.1,1.6c4.9,0,7.4-4.1,7.4-28.6v-58.8
		c0-25.3-2-28.6-7.4-28.6c-4.1,0-8.2,2.9-13.5,2.9c-13.5,0-18-11-18-23.3c0-15.5,6.9-28.2,20.4-28.2c11.8,0,20,4.1,28.2,4.1
		c9,0,17.6-4.1,27-4.1c9,0,12.7,2.9,12.7,17.6v30.5H1706.3z"/>
	<path class="st0" d="M1919.9,167.1c0,18.8-18,27.4-35.1,27.4c-20,0-37.6-14.3-37.6-35.1c0-25.7,26.1-49,89-49
		c20.4,0,48.2,2,66.2,12.3c21.6,12.3,26.1,31.9,26.1,62.9v76.8c0,15.9,2.5,19.2,6.9,19.2c3.3,0,6.5-0.8,9.8-0.8
		c13.1,0,20.4,11,20.4,22.9c0,22.9-22.9,31.4-42.1,31.4c-18.8,0-39.6-6.9-46.6-26.1c-19.2,18.4-44.1,26.1-69.8,26.1
		c-37.2,0-72.7-19.6-72.7-61.3c0-96.8,126.6-46.6,126.6-100.5c0-15.5-14.3-22.9-27.8-22.9c-6.9,0-13.5,1.2-13.5,9.4v7.3H1919.9z
		 M1961.1,236.1c-11.8,12.7-59.2,6.5-59.2,28.2c0,14.3,11.4,19.2,23.3,19.2c24.1,0,35.9-14.3,35.9-38.4L1961.1,236.1L1961.1,236.1z"
		/>
	<path class="st0" d="M2167.8,110.4c18.4,0,40,6.1,53.5,19.2c0.8-14.3,10.2-17.6,23.3-17.6c9.8,0,20.4,2,20.4,14.7
		c0,7.4-2.9,15.5-2.9,24.5c0,9.8,2.9,15.5,2.9,24.1c0,8.2-6.5,17.2-23.7,17.2c-35.1,0-24.1-35.1-63.3-35.1
		c-15.1,0-22.5,6.5-22.5,16.7c0,9,4.9,14.3,25.7,18l17.6,3.3c41.2,7.8,78,15.9,78,66.6c0,46.2-43.3,73.1-86.2,73.1
		c-24.1,0-48.6-7.8-67-23.7c0.8,12.7-7.8,20-20.4,20c-12.7,0-23.7-3.3-23.7-18.4c0-8.2,2-15.9,2-24.5c0-8.2-2-15.9-2-24.1
		c0-13.1,13.1-18.8,24.5-18.8c15.1,0,21.2,4.9,29.4,16.7c4.9,6.9,9.4,14.3,17.2,18c9.4,4.5,19.6,6.9,29.8,6.9
		c21.6,0,29-10.2,29-18.4c0-12.3-9.8-16.3-36.8-20.8c-42.1-6.9-81.3-13.9-81.3-66.6C2091.4,136.9,2124.5,110.4,2167.8,110.4z"/>
</g>
</svg>
